# Blender v3.0.0 OBJ File: ''
# www.blender.org
mtllib cotD.mtl
o cotD
v -3.868877 13.453425 -0.330713
v -3.804500 13.536300 -0.368596
v -3.957300 13.610300 -0.392296
v -3.996988 13.536905 -0.360064
v -4.101234 13.604836 -0.391792
v -4.065800 13.670400 -0.419196
v -4.222700 13.762000 -0.507696
v -4.151900 13.720900 -0.454396
v -4.107400 13.795600 -0.480896
v -4.169700 13.834800 -0.535896
v -3.999000 13.816600 -0.463496
v -4.068600 13.863500 -0.495496
v -4.029500 13.748700 -0.447796
v -4.124200 13.902300 -0.551596
v -4.163300 13.929500 -0.630196
v -4.214700 13.862700 -0.614396
v -4.277400 13.790600 -0.584796
v -4.320300 13.805400 -0.681096
v -4.250800 13.882500 -0.710196
v -4.355000 13.803600 -0.790996
v -4.284000 13.890600 -0.819696
v -4.374885 13.783154 -0.901718
v -4.308100 13.878500 -0.938596
v -4.375152 13.783329 -0.910084
v -4.222700 13.970700 -0.834996
v -4.244200 13.971200 -0.955296
v -4.194400 13.952700 -0.725296
v -4.351403 13.767853 -0.665276
v -4.314770 13.743982 -0.564148
v -4.118900 14.001700 -0.632496
v -4.149500 14.029100 -0.728196
v -4.080600 13.972000 -0.555096
v -4.260220 13.708436 -0.484722
v -4.031300 13.930300 -0.498496
v -3.993100 14.000300 -0.488896
v -4.035200 14.047700 -0.547296
v -3.970600 13.879300 -0.465196
v -3.942000 13.944100 -0.450896
v -3.898400 13.827000 -0.447896
v -3.916700 13.767400 -0.446396
v -3.810800 13.778900 -0.437696
v -3.819200 13.722300 -0.436196
v -3.934900 13.697600 -0.427496
v -3.820200 13.649500 -0.414496
v -3.876800 13.887800 -0.430496
v -3.847900 13.959400 -0.388196
v -3.908300 14.018600 -0.415496
v -3.951700 14.077700 -0.462796
v -3.731800 13.991500 -0.310396
v -3.807000 14.046100 -0.323696
v -3.770100 13.906200 -0.376296
v -3.795200 13.836900 -0.419696
v -3.865100 14.106200 -0.358996
v -3.988000 14.131300 -0.526596
v -4.074400 14.086200 -0.624296
v -4.026100 14.181600 -0.607096
v -3.944701 14.214921 -0.494573
v -3.996219 14.240956 -0.591515
v -4.125300 14.152900 -0.837396
v -4.106500 14.122000 -0.722596
v -4.058200 14.228600 -0.710296
v -4.073500 14.265100 -0.830096
v -3.906300 14.165800 -0.416996
v -3.930624 14.207808 -0.470479
v -3.894101 14.189351 -0.403689
v -3.483972 13.202609 -0.411622
v -3.460900 13.228600 -0.423296
v -3.553100 13.312600 -0.359296
v -3.593021 13.273669 -0.340978
v -3.672100 13.415100 -0.341796
v -3.727376 13.361218 -0.316820
v -3.704400 13.629500 -0.415896
v -3.668600 13.553600 -0.386596
v -3.606200 13.619600 -0.421896
v -3.585800 13.573000 -0.403896
v -3.530700 13.604300 -0.426496
v -3.487500 13.546500 -0.416696
v -3.458200 13.394200 -0.403596
v -3.379400 13.483200 -0.452496
v -3.568400 13.475300 -0.376796
v -3.418000 13.610800 -0.459496
v -3.326800 13.568700 -0.498496
v -3.293600 13.647000 -0.523896
v -3.264200 13.529900 -0.565996
v -3.230500 13.620300 -0.591396
v -3.235500 13.501000 -0.652696
v -3.197800 13.598600 -0.676996
v -3.265100 13.719300 -0.528996
v -3.197900 13.704100 -0.599296
v -3.233600 13.792000 -0.517996
v -3.161800 13.786200 -0.593396
v -3.207916 13.842585 -0.501592
v -3.148271 13.812443 -0.587884
v -3.330000 13.797900 -0.461996
v -3.357500 13.733800 -0.480496
v -3.158500 13.690600 -0.686596
v -3.115800 13.781100 -0.683696
v -3.141400 13.682200 -0.784596
v -3.091600 13.779700 -0.783796
v -3.188000 13.584400 -0.774096
v -3.383100 13.674000 -0.480596
v -3.505800 13.646600 -0.446896
v -3.604500 13.667400 -0.438796
v -3.595300 13.714200 -0.442096
v -3.485000 13.695600 -0.456796
v -3.276900 13.394300 -0.613396
v -3.270900 13.375300 -0.717496
v -3.230800 13.483500 -0.751296
v -3.332100 13.281700 -0.566396
v -3.315200 13.259100 -0.678696
v -3.369500 13.134900 -0.774096
v -3.323800 13.254600 -0.801996
v -3.371100 13.141400 -0.643196
v -3.285100 13.369900 -0.832396
v -3.358100 13.264700 -0.929796
v -3.319000 13.377500 -0.953196
v -3.400900 13.170900 -0.522596
v -3.372123 13.129725 -0.772955
v -3.376486 13.132568 -0.640680
v -3.308900 13.430200 -0.522096
v -3.377500 13.326700 -0.470996
v -3.244000 13.477400 -0.860196
v -3.196300 13.580200 -0.880396
v -3.274000 13.484500 -0.974496
v -3.221300 13.589500 -0.990196
v -3.711700 13.689200 -0.434096
v -3.707400 13.740200 -0.435196
v -3.695400 13.794500 -0.417996
v -3.674100 13.860600 -0.377196
v -3.561900 13.826600 -0.393096
v -3.582000 13.764800 -0.428396
v -3.466000 13.747100 -0.449396
v -3.443100 13.807200 -0.422196
v -3.529900 13.902700 -0.335096
v -3.410000 13.879300 -0.373796
v -3.381337 13.930223 -0.336576
v -3.293800 13.870700 -0.425896
v -3.286872 13.882486 -0.418853
v -3.486732 13.983485 -0.272811
v -3.639800 13.942100 -0.313596
v -3.412000 13.285000 -1.052996
v -3.367400 13.395800 -1.071596
v -3.472100 13.309700 -1.168196
v -3.420900 13.420300 -1.183196
v -3.591500 13.357800 -1.371796
v -3.525200 13.472800 -1.380196
v -3.473800 13.446900 -1.286396
v -3.532100 13.334500 -1.274896
v -3.363000 13.529100 -1.193196
v -3.409600 13.558100 -1.291096
v -3.299000 13.637800 -1.196696
v -3.340600 13.668600 -1.289296
v -3.454600 13.587500 -1.380396
v -3.381500 13.700300 -1.375596
v -3.624665 13.294290 -1.362399
v -3.567396 13.256971 -1.262790
v -3.651700 13.380700 -1.457096
v -3.576800 13.498900 -1.463896
v -3.632700 13.528500 -1.535596
v -3.714500 13.407100 -1.528396
v -3.681368 13.331239 -1.449615
v -3.739708 13.369255 -1.521866
v -3.933300 13.528300 -1.616096
v -4.009100 13.577300 -1.591196
v -3.930000 13.704400 -1.604096
v -3.850100 13.656700 -1.628096
v -4.004800 13.747900 -1.552796
v -4.078500 13.623600 -1.538696
v -3.802796 13.410365 -1.575677
v -3.872887 13.456038 -1.606584
v -3.856000 13.481400 -1.612296
v -3.782100 13.440600 -1.581796
v -3.770700 13.608700 -1.623196
v -3.697000 13.565000 -1.590796
v -3.770000 13.783600 -1.628996
v -3.688200 13.735600 -1.622696
v -3.614000 13.690200 -1.588696
v -3.411986 13.155702 -0.516922
v -3.311227 13.894794 -1.444259
v -3.261458 13.869642 -1.361239
v -3.306200 13.809700 -1.368096
v -3.348600 13.843600 -1.448396
v -3.089751 13.782869 -0.830240
v -3.089844 13.782917 -0.783462
v -3.316100 13.503100 -1.087096
v -3.257700 13.610200 -1.096696
v -3.162800 13.695800 -0.996796
v -3.193900 13.718800 -1.097996
v -3.143200 13.682800 -0.890396
v -3.267600 13.777800 -1.282496
v -3.230000 13.747200 -1.192496
v -4.154491 13.639540 -1.458402
v -4.210499 13.676037 -1.368946
v -4.192700 13.705900 -1.376196
v -4.139100 13.665500 -1.464396
v -4.178900 13.861400 -1.298796
v -4.128000 13.821800 -1.393696
v -4.241900 13.749500 -1.279696
v -4.264911 13.711493 -1.269757
v -4.070600 13.785800 -1.479996
v -4.284200 13.797700 -1.175096
v -4.221300 13.905700 -1.194896
v -4.309800 13.844900 -1.060396
v -4.246200 13.947500 -1.079196
v -4.186100 14.052700 -1.086296
v -4.161400 14.018100 -1.204096
v -4.187000 14.065700 -0.960996
v -4.356621 13.771253 -1.038819
v -4.118500 13.977800 -1.308896
v -4.064900 13.941100 -1.402596
v -4.003300 13.907700 -1.486296
v -4.003600 14.061400 -1.406196
v -3.938500 14.026800 -1.488696
v -4.059800 14.097700 -1.311796
v -4.103200 14.135100 -1.204896
v -4.127300 14.163500 -1.085096
v -4.001200 14.217300 -1.312196
v -4.043100 14.253400 -1.200696
v -4.172600 14.054500 -0.839496
v -4.132100 14.169400 -0.959896
v -4.067666 14.277061 -1.079585
v -4.076013 14.281281 -0.954797
v -4.038385 14.262264 -1.200558
v -4.062655 14.274530 -1.100266
v -3.930273 14.207631 -1.411430
v -3.944600 14.179200 -1.409896
v -3.990632 14.238132 -1.312606
v -3.877300 14.141700 -1.493096
v -3.864600 13.990200 -1.556796
v -3.800900 14.103100 -1.559596
v -3.782800 13.949000 -1.604296
v -3.716800 14.061400 -1.604796
v -3.783835 14.133627 -1.561802
v -3.699323 14.090919 -1.606489
v -3.861072 14.172660 -1.495394
v -4.067649 14.277054 -0.828788
v -4.074680 14.280607 -0.935108
v -3.590542 14.035947 -0.243187
v -3.682980 14.082660 -0.245687
v -3.262747 13.870295 -0.446806
v -3.109508 13.792854 -0.682022
v -3.853600 13.830300 -1.606296
v -3.697000 13.903500 -1.625696
v -3.613000 13.856300 -1.618696
v -3.628900 14.016300 -1.623996
v -3.543100 13.969600 -1.614896
v -3.610516 14.046041 -1.625071
v -3.522622 14.001623 -1.615252
v -3.441089 13.960420 -1.578216
v -3.370361 13.924677 -1.518843
v -3.400500 13.881400 -1.520796
v -3.465400 13.923800 -1.578796
v -3.536900 13.810600 -1.584296
v -3.474000 13.769300 -1.527196
v -3.551600 13.650700 -1.532396
v -3.424100 13.733100 -1.455596
v -3.500200 13.617400 -1.461296
v -3.932800 13.871900 -1.556696
v -3.217515 13.847436 -1.273799
v -3.177089 13.827006 -1.183628
v -3.835508 14.159740 -0.325605
v -3.764488 14.123851 -0.271587
v -4.041140 14.263658 -0.704172
v -3.108456 13.792322 -0.993244
v -3.089601 13.782793 -0.889339
v -3.139772 13.808147 -1.090773
v -3.395776 13.145139 -0.894782
v -4.316600 13.745175 -1.160355
v -3.948236 13.505138 -1.610749
v -3.508901 13.218855 -1.153108
v -4.188050 13.661407 -0.429745
v -3.450035 13.180495 -1.034884
v -3.398301 13.146784 -0.907407
v -4.023484 13.554173 -1.585912
v -4.093016 13.599481 -1.533220
v -4.372051 13.781307 -0.782482
vn 0.0810 0.3615 0.9289
vn 0.0746 0.3626 0.9290
vn 0.0159 0.3841 0.9231
vn 0.0195 0.3946 0.9186
vn -0.0532 0.4164 0.9076
vn -0.0670 0.3969 0.9154
vn -0.4143 0.5807 0.7008
vn -0.2188 0.4777 0.8508
vn -0.2825 0.4194 0.8627
vn -0.4869 0.5551 0.6744
vn -0.1867 0.2083 0.9601
vn -0.3847 0.3313 0.8615
vn -0.1035 0.3312 0.9379
vn -0.5901 0.4779 0.6507
vn -0.7047 0.5486 0.4499
vn -0.6141 0.6430 0.4577
vn -0.5690 0.6685 0.4789
vn -0.6656 0.6862 0.2934
vn -0.6828 0.6603 0.3128
vn -0.7500 0.6488 0.1288
vn -0.7575 0.6274 0.1805
vn -0.7849 0.6169 0.0580
vn -0.8289 0.5591 -0.0173
vn -0.8105 0.5851 -0.0286
vn -0.7974 0.5630 0.2171
vn -0.8382 0.5448 0.0244
vn -0.7582 0.5606 0.3329
vn -0.6618 0.6799 0.3160
vn -0.5507 0.6565 0.5154
vn -0.7766 0.4310 0.4594
vn -0.8334 0.4383 0.3368
vn -0.6719 0.3839 0.6334
vn -0.3791 0.5810 0.7202
vn -0.5057 0.2309 0.8312
vn -0.6388 0.1526 0.7541
vn -0.7321 0.2991 0.6120
vn -0.3277 0.0551 0.9432
vn -0.5037 -0.0668 0.8613
vn -0.2050 -0.0502 0.9775
vn -0.0705 0.1651 0.9838
vn -0.1156 -0.1015 0.9881
vn -0.0029 0.1628 0.9867
vn -0.0024 0.3202 0.9473
vn 0.0509 0.3368 0.9402
vn -0.3640 -0.2380 0.9005
vn -0.4838 -0.3165 0.8159
vn -0.6503 -0.1007 0.7530
vn -0.7518 0.1145 0.6494
vn -0.3371 -0.4487 0.8277
vn -0.5314 -0.2866 0.7972
vn -0.3136 -0.4503 0.8360
vn -0.2366 -0.3338 0.9125
vn -0.7136 -0.0611 0.6979
vn -0.7900 0.2338 0.5667
vn -0.8077 0.3464 0.4771
vn -0.8272 0.3010 0.4745
vn -0.8175 0.2012 0.5397
vn -0.8370 0.2805 0.4698
vn -0.8914 0.4151 0.1820
vn -0.8662 0.3733 0.3321
vn -0.8723 0.3692 0.3206
vn -0.8979 0.4096 0.1613
vn -0.8140 0.1004 0.5722
vn -0.8197 0.1639 0.5488
vn -0.8102 0.0896 0.5792
vn 0.6018 -0.1866 0.7765
vn 0.6340 -0.2134 0.7433
vn 0.3961 0.0243 0.9179
vn 0.3761 0.0654 0.9243
vn 0.1865 0.2378 0.9532
vn 0.1869 0.2614 0.9470
vn 0.0829 0.3486 0.9336
vn 0.1013 0.3448 0.9332
vn 0.1090 0.3634 0.9252
vn 0.1472 0.3443 0.9272
vn 0.1820 0.3367 0.9239
vn 0.3008 0.2346 0.9244
vn 0.4659 0.0173 0.8847
vn 0.5501 0.0486 0.8337
vn 0.2366 0.2117 0.9483
vn 0.3464 0.1753 0.9216
vn 0.5974 0.0358 0.8011
vn 0.5827 -0.0893 0.8078
vn 0.8292 -0.1432 0.5403
vn 0.8060 -0.2114 0.5529
vn 0.9289 -0.2813 0.2410
vn 0.9066 -0.3238 0.2706
vn 0.5575 -0.2724 0.7842
vn 0.7655 -0.3216 0.5573
vn 0.5421 -0.4378 0.7172
vn 0.7249 -0.4350 0.5341
vn 0.5145 -0.5173 0.6839
vn 0.6917 -0.4935 0.5273
vn 0.3413 -0.4754 0.8109
vn 0.3319 -0.2748 0.9024
vn 0.8708 -0.3861 0.3042
vn 0.8334 -0.4541 0.3150
vn 0.8945 -0.4395 0.0825
vn 0.8756 -0.4717 0.1038
vn 0.9139 -0.4035 0.0443
vn 0.3402 -0.0205 0.9401
vn 0.1835 0.2216 0.9577
vn 0.0944 0.1944 0.9764
vn 0.0632 -0.1028 0.9927
vn 0.1734 -0.0403 0.9840
vn 0.9194 -0.2880 0.2680
vn 0.9390 -0.3438 0.0124
vn 0.9316 -0.3635 0.0088
vn 0.8679 -0.3318 0.3697
vn 0.9251 -0.3711 0.0810
vn 0.8921 -0.4369 -0.1151
vn 0.9157 -0.3688 -0.1596
vn 0.8835 -0.4410 0.1577
vn 0.9093 -0.3730 -0.1846
vn 0.8622 -0.3678 -0.3484
vn 0.8530 -0.3974 -0.3383
vn 0.8074 -0.3823 0.4494
vn 0.8704 -0.4864 -0.0763
vn 0.8579 -0.4727 0.2014
vn 0.7969 -0.1566 0.5835
vn 0.7100 -0.1985 0.6756
vn 0.8935 -0.4148 -0.1721
vn 0.8803 -0.4518 -0.1451
vn 0.8383 -0.4427 -0.3183
vn 0.8305 -0.4684 -0.3016
vn 0.0559 0.1664 0.9845
vn -0.0167 -0.1281 0.9916
vn -0.0939 -0.3857 0.9178
vn -0.1404 -0.5277 0.8377
vn 0.0190 -0.5526 0.8333
vn 0.0329 -0.3831 0.9231
vn 0.1685 -0.3306 0.9286
vn 0.1756 -0.5289 0.8303
vn 0.0250 -0.6130 0.7897
vn 0.1903 -0.6240 0.7579
vn 0.1863 -0.6500 0.7367
vn 0.3523 -0.6029 0.7158
vn 0.3379 -0.6497 0.6810
vn 0.0228 -0.6144 0.7887
vn -0.1534 -0.5544 0.8180
vn 0.8022 -0.3885 -0.4535
vn 0.7974 -0.4196 -0.4337
vn 0.7626 -0.4061 -0.5036
vn 0.7606 -0.4342 -0.4826
vn 0.6854 -0.4429 -0.5780
vn 0.7119 -0.4452 -0.5431
vn 0.7363 -0.4429 -0.5115
vn 0.7320 -0.4263 -0.5315
vn 0.7567 -0.4535 -0.4709
vn 0.7378 -0.4506 -0.5026
vn 0.7563 -0.4614 -0.4639
vn 0.7356 -0.4584 -0.4988
vn 0.7181 -0.4428 -0.5369
vn 0.7161 -0.4485 -0.5349
vn 0.6935 -0.4398 -0.5707
vn 0.7321 -0.4141 -0.5408
vn 0.6260 -0.4471 -0.6389
vn 0.6592 -0.4298 -0.6170
vn 0.5582 -0.3826 -0.7362
vn 0.5150 -0.4244 -0.7447
vn 0.6186 -0.4534 -0.6417
vn 0.4966 -0.4449 -0.7453
vn -0.1629 -0.0548 -0.9851
vn -0.4016 0.1004 -0.9103
vn -0.3490 0.1585 -0.9236
vn -0.1048 0.0161 -0.9944
vn -0.5446 0.2614 -0.7969
vn -0.5889 0.2165 -0.7786
vn 0.3133 -0.3800 -0.8703
vn 0.0691 -0.2589 -0.9634
vn 0.0979 -0.2143 -0.9719
vn 0.3367 -0.3458 -0.8758
vn 0.1547 -0.1419 -0.9777
vn 0.3874 -0.2844 -0.8769
vn -0.0653 0.0506 -0.9966
vn 0.1919 -0.1033 -0.9760
vn 0.4209 -0.2492 -0.8722
vn 0.7706 -0.3821 0.5101
vn 0.6621 -0.4372 -0.6086
vn 0.7100 -0.4667 -0.5274
vn 0.7104 -0.4599 -0.5328
vn 0.6693 -0.4219 -0.6116
vn 0.8845 -0.4666 -0.0057
vn 0.8654 -0.4877 0.1151
vn 0.7886 -0.4528 -0.4160
vn 0.7862 -0.4657 -0.4062
vn 0.8355 -0.4681 -0.2877
vn 0.7940 -0.4637 -0.3931
vn 0.8777 -0.4638 -0.1209
vn 0.7373 -0.4665 -0.4886
vn 0.7660 -0.4596 -0.4496
vn -0.7152 0.2812 -0.6399
vn -0.7618 0.3186 -0.5640
vn -0.7553 0.3230 -0.5702
vn -0.6996 0.2952 -0.6508
vn -0.7762 0.3572 -0.5195
vn -0.7391 0.3393 -0.5819
vn -0.7817 0.3495 -0.5164
vn -0.7868 0.3444 -0.5122
vn -0.6712 0.3156 -0.6708
vn -0.8138 0.3987 -0.4227
vn -0.8165 0.4022 -0.4142
vn -0.8410 0.4752 -0.2587
vn -0.8500 0.4792 -0.2189
vn -0.8636 0.4689 -0.1851
vn -0.8229 0.4089 -0.3944
vn -0.8717 0.4886 0.0383
vn -0.8403 0.4865 -0.2393
vn -0.7714 0.3633 -0.5225
vn -0.7213 0.3458 -0.6001
vn -0.6392 0.3263 -0.6963
vn -0.7083 0.3415 -0.6179
vn -0.6192 0.3150 -0.7193
vn -0.7697 0.3707 -0.5198
vn -0.8275 0.4211 -0.3714
vn -0.8710 0.4621 -0.1667
vn -0.7733 0.3791 -0.5081
vn -0.8294 0.4333 -0.3526
vn -0.8612 0.4629 0.2099
vn -0.8900 0.4555 0.0193
vn -0.8769 0.4520 -0.1635
vn -0.8974 0.4408 0.0192
vn -0.8310 0.4337 -0.3483
vn -0.8525 0.4487 -0.2682
vn -0.7110 0.3257 -0.6233
vn -0.7065 0.3311 -0.6255
vn -0.7774 0.3822 -0.4996
vn -0.6163 0.2886 -0.7327
vn -0.4837 0.2647 -0.8342
vn -0.4798 0.2291 -0.8469
vn -0.2913 0.1757 -0.9404
vn -0.2881 0.1396 -0.9474
vn -0.4787 0.2064 -0.8534
vn -0.2847 0.1132 -0.9519
vn -0.6156 0.2733 -0.7391
vn -0.8975 0.4120 0.1575
vn -0.9011 0.4241 0.0902
vn -0.1630 -0.5336 0.8299
vn -0.3315 -0.4271 0.8412
vn 0.4315 -0.5426 0.7207
vn 0.8107 -0.4870 0.3251
vn -0.3086 0.1846 -0.9331
vn -0.0525 0.0500 -0.9974
vn 0.2014 -0.0955 -0.9748
vn -0.0505 0.0194 -0.9985
vn 0.2008 -0.1170 -0.9726
vn -0.0466 -0.0069 -0.9989
vn 0.2028 -0.1420 -0.9689
vn 0.4211 -0.2692 -0.8662
vn 0.5739 -0.3710 -0.7300
vn 0.5793 -0.3574 -0.7326
vn 0.4223 -0.2486 -0.8717
vn 0.4281 -0.2369 -0.8721
vn 0.5899 -0.3484 -0.7284
vn 0.5840 -0.3575 -0.7288
vn 0.6771 -0.4167 -0.6066
vn 0.6754 -0.4175 -0.6079
vn -0.5056 0.2782 -0.8167
vn 0.7410 -0.4738 -0.4759
vn 0.7690 -0.4626 -0.4412
vn -0.6966 -0.0779 0.7132
vn -0.5185 -0.2712 0.8109
vn -0.8735 0.3571 0.3308
vn 0.8413 -0.4652 -0.2753
vn 0.8763 -0.4696 -0.1076
vn 0.8021 -0.4592 -0.3819
vn 0.8952 -0.3755 -0.2400
vn -0.8189 0.3945 -0.4170
vn -0.1936 -0.0972 -0.9762
vn 0.7661 -0.3907 -0.5103
vn -0.1842 0.4813 0.8570
vn 0.8064 -0.3707 -0.4607
vn 0.8731 -0.3726 -0.3145
vn -0.4382 0.0693 -0.8962
vn -0.6144 0.2009 -0.7630
vn -0.7473 0.6500 0.1379
usemtl default
s 1
f 1//1 2//2 3//3 4//4
f 5//5 4//4 3//3 6//6
f 7//7 8//8 9//9 10//10
f 11//11 12//12 9//9 13//13
f 12//12 14//14 10//10 9//9
f 14//14 15//15 16//16 10//10
f 10//10 16//16 17//17 7//7
f 18//18 17//17 16//16 19//19
f 20//20 18//18 19//19 21//21
f 22//22 20//20 21//21 23//23 24//24
f 21//21 25//25 26//26 23//23
f 21//21 19//19 27//27 25//25
f 28//28 29//29 17//17 18//18
f 19//19 16//16 15//15 27//27
f 27//27 15//15 30//30 31//31
f 32//32 30//30 15//15 14//14
f 29//29 33//33 7//7 17//17
f 14//14 12//12 34//34 32//32
f 32//32 34//34 35//35 36//36
f 34//34 37//37 38//38 35//35
f 37//37 34//34 12//12 11//11
f 39//39 37//37 11//11 40//40
f 41//41 39//39 40//40 42//42
f 43//43 44//44 42//42 40//40
f 13//13 43//43 40//40 11//11
f 45//45 38//38 37//37 39//39
f 46//46 47//47 38//38 45//45
f 35//35 38//38 47//47 48//48
f 49//49 50//50 46//46 51//51
f 51//51 46//46 45//45 52//52
f 47//47 46//46 50//50 53//53
f 52//52 45//45 39//39 41//41
f 48//48 54//54 36//36 35//35
f 55//55 36//36 54//54 56//56
f 57//57 58//58 56//56 54//54
f 59//59 60//60 61//61 62//62
f 60//60 55//55 56//56 61//61
f 30//30 32//32 36//36 55//55
f 48//48 47//47 53//53 63//63
f 64//64 63//63 65//65
f 8//8 6//6 13//13 9//9
f 66//66 67//67 68//68 69//69
f 69//69 68//68 70//70 71//71
f 6//6 3//3 43//43 13//13
f 3//3 2//2 44//44 43//43
f 72//72 44//44 2//2 73//73
f 74//74 72//72 73//73 75//75
f 76//76 74//74 75//75 77//77
f 78//78 79//79 77//77 80//80
f 81//81 77//77 79//79 82//82
f 83//83 82//82 84//84 85//85
f 86//86 87//87 85//85 84//84
f 88//88 83//83 85//85 89//89
f 90//90 88//88 89//89 91//91
f 92//92 90//90 91//91 93//93
f 88//88 90//90 94//94 95//95
f 96//96 97//97 91//91 89//89
f 87//87 96//96 89//89 85//85
f 97//97 96//96 98//98 99//99
f 96//96 87//87 100//100 98//98
f 101//101 81//81 82//82 83//83
f 102//102 76//76 77//77 81//81
f 76//76 102//102 103//103 74//74
f 104//104 103//103 102//102 105//105
f 105//105 102//102 81//81 101//101
f 95//95 101//101 83//83 88//88
f 86//86 106//106 107//107 108//108
f 106//106 109//109 110//110 107//107
f 111//111 112//112 110//110 113//113
f 107//107 110//110 112//112 114//114
f 114//114 112//112 115//115 116//116
f 109//109 117//117 113//113 110//110
f 118//118 111//111 113//113 119//119
f 120//120 121//121 109//109 106//106
f 120//120 84//84 82//82 79//79
f 106//106 86//86 84//84 120//120
f 79//79 78//78 121//121 120//120
f 114//114 122//122 108//108 107//107
f 108//108 100//100 87//87 86//86
f 100//100 108//108 122//122 123//123
f 123//123 122//122 124//124 125//125
f 122//122 114//114 116//116 124//124
f 73//73 2//2 70//70 80//80
f 80//80 77//77 75//75 73//73
f 80//80 70//70 68//68 78//78
f 126//126 42//42 44//44 72//72
f 42//42 126//126 127//127 41//41
f 128//128 52//52 41//41 127//127
f 52//52 128//128 129//129 51//51
f 130//130 129//129 128//128 131//131
f 130//130 131//131 132//132 133//133
f 95//95 94//94 133//133 132//132
f 134//134 130//130 133//133 135//135
f 136//136 135//135 137//137 138//138
f 135//135 133//133 94//94 137//137
f 139//139 134//134 135//135 136//136
f 129//129 130//130 134//134 140//140
f 101//101 95//95 132//132 105//105
f 131//131 104//104 105//105 132//132
f 127//127 104//104 131//131 128//128
f 51//51 129//129 140//140 49//49
f 104//104 127//127 126//126 103//103
f 103//103 126//126 72//72 74//74
f 116//116 115//115 141//141 142//142
f 143//143 144//144 142//142 141//141
f 145//145 146//146 147//147 148//148
f 148//148 147//147 144//144 143//143
f 149//149 144//144 147//147 150//150
f 151//151 149//149 150//150 152//152
f 152//152 150//150 153//153 154//154
f 150//150 147//147 146//146 153//153
f 155//155 145//145 148//148 156//156
f 145//145 157//157 158//158 146//146
f 159//159 158//158 157//157 160//160
f 161//161 162//162 160//160 157//157
f 163//163 164//164 165//165 166//166
f 167//167 165//165 164//164 168//168
f 169//169 170//170 171//171 172//172
f 173//173 174//174 172//172 171//171
f 162//162 169//169 172//172 160//160
f 160//160 172//172 174//174 159//159
f 175//175 176//176 173//173 166//166
f 171//171 163//163 166//166 173//173
f 176//176 177//177 174//174 173//173
f 78//78 68//68 67//67 121//121
f 117//117 109//109 121//121 67//67
f 178//178 117//117 67//67 66//66
f 179//179 180//180 181//181 182//182
f 183//183 184//184 99//99
f 142//142 185//185 124//124 116//116
f 125//125 124//124 185//185 186//186
f 187//187 125//125 186//186 188//188
f 125//125 187//187 189//189 123//123
f 98//98 100//100 123//123 189//189
f 151//151 152//152 190//190 191//191
f 181//181 190//190 152//152 154//154
f 188//188 186//186 151//151 191//191
f 186//186 185//185 149//149 151//151
f 185//185 142//142 144//144 149//149
f 192//192 193//193 194//194 195//195
f 196//196 197//197 194//194 198//198
f 193//193 199//199 198//198 194//194
f 195//195 194//194 197//197 200//200
f 196//196 198//198 201//201 202//202
f 202//202 201//201 203//203 204//204
f 23//23 26//26 204//204 203//203
f 204//204 205//205 206//206 202//202
f 205//205 204//204 26//26 207//207
f 208//208 24//24 23//23 203//203
f 202//202 206//206 209//209 196//196
f 196//196 209//209 210//210 197//197
f 200//200 197//197 210//210 211//211
f 211//211 210//210 212//212 213//213
f 212//212 210//210 209//209 214//214
f 206//206 215//215 214//214 209//209
f 205//205 216//216 215//215 206//206
f 217//217 214//214 215//215 218//218
f 55//55 60//60 31//31 30//30
f 25//25 27//27 31//31 219//219
f 26//26 25//25 219//219 207//207
f 59//59 220//220 207//207 219//219
f 221//221 216//216 220//220 222//222
f 223//223 218//218 224//224
f 225//225 226//226 217//217 227//227
f 226//226 228//228 213//213 212//212
f 229//229 213//213 228//228 230//230
f 231//231 229//229 230//230 232//232
f 233//233 234//234 232//232 230//230
f 235//235 233//233 230//230 228//228
f 214//214 217//217 226//226 212//212
f 236//236 237//237 62//62
f 207//207 220//220 216//216 205//205
f 219//219 31//31 60//60 59//59
f 238//238 239//239 49//49 140//140
f 138//138 137//137 240//240
f 241//241 97//97 99//99 184//184
f 242//242 175//175 166//166 165//165
f 231//231 243//243 175//175 242//242
f 244//244 243//243 245//245 246//246
f 232//232 245//245 243//243 231//231
f 247//247 248//248 246//246 245//245
f 249//249 250//250 251//251 252//252
f 253//253 244//244 246//246 252//252
f 244//244 253//253 177//177 176//176
f 253//253 254//254 255//255 177//177
f 254//254 256//256 257//257 255//255
f 251//251 182//182 256//256 254//254
f 252//252 251//251 254//254 253//253
f 243//243 244//244 176//176 175//175
f 242//242 258//258 229//229 231//231
f 165//165 167//167 258//258 242//242
f 213//213 229//229 258//258 211//211
f 167//167 200//200 211//211 258//258
f 159//159 174//174 177//177 255//255
f 158//158 159//159 255//255 257//257
f 200//200 167//167 168//168 195//195
f 257//257 153//153 146//146 158//158
f 256//256 154//154 153//153 257//257
f 154//154 256//256 182//182 181//181
f 191//191 190//190 259//259 260//260
f 218//218 223//223 227//227 217//217
f 53//53 261//261 65//65 63//63
f 190//190 181//181 180//180 259//259
f 216//216 221//221 224//224 218//218 215//215
f 53//53 50//50 262//262 261//261
f 245//245 232//232 234//234 247//247
f 62//62 61//61 263//263 236//236
f 140//140 134//134 139//139 238//238
f 50//50 49//49 239//239 262//262
f 90//90 92//92 240//240 137//137 94//94
f 61//61 56//56 58//58 263//263
f 252//252 246//246 248//248 249//249
f 62//62 237//237 222//222 220//220 59//59
f 187//187 264//264 265//265 189//189
f 99//99 98//98 189//189 265//265 183//183
f 182//182 251//251 250//250 179//179
f 188//188 266//266 264//264 187//187
f 188//188 191//191 260//260 266//266
f 97//97 241//241 93//93 91//91
f 63//63 64//64 57//57 54//54 48//48
f 228//228 226//226 225//225 235//235
f 111//111 118//118 267//267
f 203//203 201//201 268//268 208//208
f 117//117 178//178 119//119 113//113
f 70//70 2//2 1//1 71//71
f 163//163 171//171 170//170 269//269
f 143//143 270//270 156//156 148//148
f 8//8 7//7 33//33 271//271
f 141//141 272//272 270//270 143//143
f 201//201 198//198 199//199 268//268
f 112//112 111//111 267//267 273//273 115//115
f 115//115 273//273 272//272 141//141
f 168//168 164//164 274//274 275//275
f 164//164 163//163 269//269 274//274
f 195//195 168//168 275//275 192//192
f 6//6 8//8 271//271 5//5
f 157//157 145//145 155//155 161//161
f 18//18 20//20 276//276 28//28
f 20//20 22//22 276//276
