# Blender v3.0.0 OBJ File: ''
# www.blender.org
mtllib cotS.mtl
o cotS
v 3.804600 13.536000 -0.368496
v 3.820400 13.649200 -0.413796
v 3.704400 13.629400 -0.414496
v 3.668600 13.553400 -0.385896
v 3.604100 13.667400 -0.437096
v 3.605900 13.619400 -0.420496
v 3.711800 13.689100 -0.432496
v 3.530300 13.603900 -0.425296
v 3.487300 13.546200 -0.416096
v 3.585600 13.572700 -0.402996
v 3.568300 13.475100 -0.376496
v 3.458200 13.394200 -0.403496
v 3.379300 13.483000 -0.452296
v 3.672100 13.415000 -0.341696
v 3.588392 13.278183 -0.343082
v 3.723283 13.365168 -0.318687
v 3.553100 13.312600 -0.359196
v 3.865876 13.457118 -0.332899
v 4.098441 13.607087 -0.396894
v 4.065000 13.668500 -0.422996
v 3.957300 13.609500 -0.393596
v 3.994729 13.540209 -0.363491
v 3.479277 13.207821 -0.414020
v 3.460900 13.228500 -0.423296
v 3.377500 13.326700 -0.470996
v 3.400900 13.170900 -0.522596
v 3.332000 13.281700 -0.566396
v 3.371100 13.141500 -0.643196
v 3.315200 13.259100 -0.678696
v 3.276900 13.394300 -0.613396
v 3.270900 13.375200 -0.717496
v 3.308900 13.430200 -0.522096
v 3.326600 13.568400 -0.498196
v 3.264200 13.529900 -0.565996
v 3.417500 13.610200 -0.458596
v 3.505300 13.646300 -0.445396
v 3.595000 13.714100 -0.440396
v 3.484400 13.695600 -0.455096
v 3.581800 13.764200 -0.426796
v 3.465400 13.747200 -0.447996
v 3.561800 13.825400 -0.391396
v 3.442600 13.807100 -0.421296
v 3.529900 13.900700 -0.332896
v 3.674600 13.859500 -0.374796
v 3.640700 13.941200 -0.311496
v 3.695600 13.793500 -0.415696
v 3.409700 13.878900 -0.373496
v 3.329800 13.799000 -0.461696
v 3.357000 13.734200 -0.479496
v 3.382400 13.673700 -0.479496
v 3.707500 13.739600 -0.433296
v 3.811400 13.778300 -0.436296
v 3.795800 13.836900 -0.418096
v 3.819600 13.721800 -0.435096
v 3.935100 13.696800 -0.428596
v 3.916900 13.767000 -0.447596
v 4.028500 13.747000 -0.452296
v 3.997300 13.815700 -0.469096
v 4.103700 13.791900 -0.489096
v 4.063700 13.859900 -0.505396
v 4.163300 13.829400 -0.544096
v 4.117000 13.895700 -0.560396
v 4.209900 13.859000 -0.618296
v 4.158500 13.924700 -0.633796
v 4.274000 13.788200 -0.587796
v 4.318900 13.804500 -0.681896
v 4.248700 13.881000 -0.711296
v 4.218100 13.758100 -0.513796
v 4.354400 13.803300 -0.791196
v 4.283000 13.890000 -0.819896
v 4.242800 13.970300 -0.955396
v 4.221800 13.969800 -0.835196
v 4.307000 13.878100 -0.938696
v 4.192500 13.950700 -0.726196
v 4.148400 14.027400 -0.728596
v 4.172100 14.053700 -0.839596
v 4.186200 14.064700 -0.961096
v 4.373632 13.784543 -0.910513
v 4.373130 13.784220 -0.894824
v 4.244600 13.946500 -1.078896
v 4.308700 13.844400 -1.060196
v 4.354964 13.772505 -1.039212
v 4.115400 13.997200 -0.634896
v 4.106100 14.121100 -0.722696
v 4.072500 14.083300 -0.625396
v 3.985500 14.128300 -0.528896
v 4.030500 14.042600 -0.551896
v 4.025400 14.180300 -0.607496
v 4.058000 14.228200 -0.710296
v 4.074100 13.965400 -0.562296
v 4.025200 13.926700 -0.508796
v 4.149200 13.717700 -0.460696
v 3.967900 13.879300 -0.472396
v 3.898400 13.827400 -0.449596
v 3.876200 13.889400 -0.433196
v 3.937800 13.944600 -0.459296
v 3.845800 13.961800 -0.392696
v 3.903000 14.018700 -0.423796
v 3.986700 13.996600 -0.497996
v 3.946800 14.074700 -0.469096
v 3.859800 14.105500 -0.365996
v 3.903300 14.163700 -0.420496
v 3.803600 14.048400 -0.330496
v 3.770400 13.907300 -0.375796
v 3.732000 13.993000 -0.311996
v 3.589903 14.038339 -0.237924
v 3.682582 14.085920 -0.245832
v 3.761141 14.126254 -0.277403
v 3.945918 13.508733 -1.611579
v 3.933300 13.528300 -1.616096
v 4.009100 13.577300 -1.591096
v 4.021440 13.557433 -1.586557
v 3.856000 13.481400 -1.612296
v 3.770700 13.608700 -1.623196
v 3.850100 13.656700 -1.628096
v 3.930000 13.704400 -1.604096
v 4.004700 13.747900 -1.552696
v 4.078400 13.623600 -1.538596
v 3.932700 13.871900 -1.556596
v 3.853500 13.830300 -1.606296
v 3.770000 13.783600 -1.628996
v 3.688200 13.735600 -1.622596
v 3.782100 13.440700 -1.581696
v 3.697000 13.565000 -1.590796
v 3.614000 13.690200 -1.588696
v 4.091143 13.602380 -1.533764
v 4.138900 13.665400 -1.464196
v 4.152697 13.642074 -1.458794
v 4.192400 13.705700 -1.375996
v 4.208742 13.678214 -1.369305
v 4.127700 13.821800 -1.393396
v 4.070500 13.785800 -1.479796
v 3.651700 13.380700 -1.457096
v 3.576800 13.498900 -1.463896
v 3.632700 13.528500 -1.535596
v 3.714500 13.407100 -1.528396
v 3.551600 13.650700 -1.532396
v 3.536900 13.810600 -1.584196
v 3.474000 13.769400 -1.527196
v 3.400500 13.881400 -1.520796
v 3.424200 13.733100 -1.455596
v 3.348600 13.843600 -1.448396
v 3.500200 13.617400 -1.461296
v 3.454600 13.587500 -1.380396
v 3.381500 13.700300 -1.375596
v 3.340600 13.668600 -1.289296
v 3.409700 13.558200 -1.291096
v 3.525200 13.472800 -1.380196
v 3.473800 13.446800 -1.286396
v 3.306200 13.809600 -1.368096
v 3.310977 13.895136 -1.444232
v 3.261439 13.869701 -1.361227
v 3.267600 13.777800 -1.282496
v 3.217712 13.847251 -1.273822
v 3.369875 13.925374 -1.518812
v 3.465400 13.923800 -1.578796
v 3.440356 13.961559 -1.578199
v 3.521576 14.003259 -1.615270
v 3.543100 13.969600 -1.614896
v 3.609164 14.048228 -1.625150
v 3.628900 14.016300 -1.623996
v 3.613000 13.856300 -1.618696
v 3.697000 13.903500 -1.625696
v 3.591500 13.357800 -1.371796
v 3.621819 13.299739 -1.363205
v 3.564708 13.262912 -1.263712
v 3.532100 13.334600 -1.274896
v 3.506309 13.225253 -1.154171
v 3.472100 13.309700 -1.168196
v 3.420900 13.420300 -1.183196
v 3.363100 13.529100 -1.193196
v 3.299000 13.637900 -1.196696
v 3.257700 13.610200 -1.096696
v 3.316100 13.503100 -1.087096
v 3.230000 13.747200 -1.192496
v 3.193900 13.718800 -1.097996
v 3.367400 13.395700 -1.071596
v 3.412000 13.285000 -1.052996
v 3.319000 13.377500 -0.953196
v 3.274000 13.484500 -0.974496
v 3.358100 13.264700 -0.929796
v 3.447538 13.187354 -1.036073
v 3.395810 13.153997 -0.908794
v 3.370130 13.137437 -0.722574
v 3.323800 13.254600 -0.801996
v 3.368817 13.136590 -0.774513
v 3.372603 13.139032 -0.642494
v 3.407662 13.161640 -0.519139
v 3.293200 13.646900 -0.523496
v 3.230400 13.620300 -0.591396
v 3.197800 13.598600 -0.676996
v 3.197900 13.704700 -0.599396
v 3.158600 13.691000 -0.686596
v 3.264800 13.719900 -0.528696
v 3.234000 13.793800 -0.518296
v 3.162500 13.787900 -0.593596
v 3.209884 13.843232 -0.503144
v 3.150222 13.812602 -0.588638
v 3.116200 13.782100 -0.683696
v 3.091700 13.780100 -0.783696
v 3.141500 13.682300 -0.784596
v 3.143200 13.682800 -0.890296
v 3.196300 13.580200 -0.880396
v 3.188000 13.584400 -0.774096
v 3.244000 13.477400 -0.860196
v 3.221300 13.589500 -0.990196
v 3.162800 13.695800 -0.996796
v 3.230800 13.483500 -0.751296
v 3.090540 13.781960 -0.812171
v 3.090659 13.782022 -0.783495
v 3.110817 13.792371 -0.682254
v 3.287761 13.883216 -0.420316
v 3.266110 13.872100 -0.446185
v 3.294300 13.872100 -0.426896
v 3.380161 13.930655 -0.335095
v 3.235500 13.501000 -0.652696
v 3.927412 14.211619 -1.410861
v 3.943900 14.178900 -1.409096
v 3.877100 14.141600 -1.492496
v 3.858825 14.176406 -1.495111
v 3.987183 14.242306 -1.312020
v 4.000100 14.216800 -1.311496
v 4.058600 14.097300 -1.310996
v 4.003000 14.061200 -1.405396
v 4.042200 14.252800 -1.200396
v 4.101900 14.134200 -1.204396
v 4.034793 14.266749 -1.200192
v 3.938300 14.026800 -1.488196
v 3.800900 14.103100 -1.559296
v 3.781940 14.136931 -1.561743
v 3.864500 13.990200 -1.556496
v 4.064947 14.282231 -0.828203
v 4.073400 14.264900 -0.830096
v 4.074800 14.283300 -0.954696
v 4.073141 14.286438 -0.954483
v 4.283600 13.797600 -1.174896
v 4.220200 13.905400 -1.194396
v 4.178300 13.861100 -1.298396
v 4.241500 13.749400 -1.279496
v 4.263284 13.713386 -1.270087
v 4.315032 13.746755 -1.160688
v 3.285100 13.369800 -0.832396
v 3.934700 14.215360 -0.483295
v 3.889250 14.192025 -0.404029
v 3.829825 14.161516 -0.329483
v 3.993200 14.245396 -0.590415
v 4.038451 14.268627 -0.703252
v 4.125100 14.152500 -0.837396
v 4.131800 14.168800 -0.959996
v 4.184600 14.051500 -1.085996
v 4.126500 14.162600 -1.084996
v 4.066200 14.278500 -1.079596
v 4.160000 14.017400 -1.203396
v 4.117500 13.977600 -1.308196
v 4.064400 13.941100 -1.401996
v 4.003100 13.907600 -1.485996
v 3.177391 13.826550 -1.183679
v 3.140193 13.807452 -1.090830
v 3.782800 13.949000 -1.604196
v 3.716800 14.061400 -1.604696
v 3.697690 14.093678 -1.606547
v 3.484789 13.984371 -0.266383
v 3.090194 13.781782 -0.889346
v 3.108964 13.791420 -0.993277
v 4.064331 14.281914 -1.079438
v 3.941056 14.218624 -0.493647
v 4.183847 13.662161 -0.436365
v 4.255012 13.708052 -0.490674
v 3.678384 13.336214 -1.450367
v 3.736678 13.373804 -1.522651
v 3.870278 13.459956 -1.607449
v 4.349020 13.768672 -0.666598
v 4.370440 13.782485 -0.783208
v 4.310729 13.743980 -0.567391
v 3.799932 13.414595 -1.576439
vn -0.0678 0.3594 0.9307
vn -0.0394 0.3330 0.9421
vn -0.0793 0.3429 0.9360
vn -0.1000 0.3387 0.9356
vn -0.0947 0.1912 0.9770
vn -0.1101 0.3560 0.9280
vn -0.0519 0.1627 0.9853
vn -0.1833 0.3278 0.9268
vn -0.3023 0.2287 0.9254
vn -0.1488 0.3368 0.9297
vn -0.2371 0.2084 0.9489
vn -0.4662 0.0160 0.8845
vn -0.5510 0.0457 0.8332
vn -0.1849 0.2360 0.9540
vn -0.3756 0.0647 0.9245
vn -0.1874 0.2597 0.9473
vn -0.3961 0.0229 0.9179
vn -0.0765 0.3589 0.9302
vn 0.0710 0.4313 0.8994
vn 0.0869 0.4107 0.9076
vn -0.0019 0.3857 0.9226
vn -0.0074 0.3969 0.9178
vn -0.5988 -0.1863 0.7790
vn -0.6337 -0.2153 0.7430
vn -0.7101 -0.1989 0.6754
vn -0.8026 -0.3832 0.4571
vn -0.8678 -0.3320 0.3697
vn -0.8790 -0.4500 0.1574
vn -0.9250 -0.3711 0.0811
vn -0.9194 -0.2881 0.2679
vn -0.9390 -0.3438 0.0123
vn -0.7971 -0.1575 0.5830
vn -0.5998 0.0317 0.7995
vn -0.8300 -0.1445 0.5388
vn -0.3499 0.1684 0.9215
vn -0.1859 0.2153 0.9587
vn -0.0639 -0.1038 0.9925
vn -0.1765 -0.0411 0.9834
vn -0.0359 -0.3866 0.9216
vn -0.1742 -0.3278 0.9285
vn -0.0240 -0.5588 0.8289
vn -0.1861 -0.5279 0.8287
vn -0.0280 -0.6212 0.7832
vn 0.1489 -0.5239 0.8387
vn 0.1750 -0.5451 0.8199
vn 0.0957 -0.3900 0.9158
vn -0.2045 -0.6293 0.7498
vn -0.3534 -0.4661 0.8111
vn -0.3396 -0.2690 0.9013
vn -0.3455 -0.0223 0.9382
vn 0.0188 -0.1335 0.9909
vn 0.1334 -0.0993 0.9861
vn 0.2599 -0.3166 0.9123
vn 0.0171 0.1602 0.9869
vn 0.0251 0.3250 0.9454
vn 0.1015 0.1781 0.9788
vn 0.1346 0.3537 0.9256
vn 0.2275 0.2439 0.9427
vn 0.2977 0.4495 0.8422
vn 0.4056 0.3602 0.8401
vn 0.4632 0.5694 0.6791
vn 0.5748 0.4724 0.6682
vn 0.5824 0.6456 0.4940
vn 0.6855 0.5329 0.4961
vn 0.5365 0.6783 0.5021
vn 0.6504 0.6927 0.3116
vn 0.6687 0.6624 0.3377
vn 0.3880 0.5998 0.6998
vn 0.7497 0.6479 0.1349
vn 0.7537 0.6303 0.1862
vn 0.8382 0.5449 0.0219
vn 0.7977 0.5608 0.2218
vn 0.8224 0.5687 -0.0141
vn 0.7521 0.5524 0.3594
vn 0.8325 0.4246 0.3558
vn 0.8633 0.4581 0.2119
vn 0.8741 0.4846 0.0342
vn 0.8062 0.5907 -0.0334
vn 0.7795 0.6236 0.0594
vn 0.8482 0.4827 -0.2180
vn 0.8422 0.4769 -0.2517
vn 0.8368 0.4918 -0.2405
vn 0.7684 0.3983 0.5009
vn 0.8666 0.3639 0.3414
vn 0.8043 0.3163 0.5031
vn 0.7860 0.1934 0.5872
vn 0.7245 0.2480 0.6431
vn 0.8265 0.2839 0.4861
vn 0.8740 0.3573 0.3292
vn 0.6620 0.3478 0.6639
vn 0.5201 0.2397 0.8198
vn 0.2229 0.4876 0.8441
vn 0.3704 0.0992 0.9236
vn 0.2446 -0.0212 0.9694
vn 0.4073 -0.1917 0.8930
vn 0.5354 -0.0311 0.8440
vn 0.5217 -0.2694 0.8095
vn 0.6618 -0.0932 0.7439
vn 0.6405 0.1295 0.7570
vn 0.7462 0.0719 0.6619
vn 0.7117 -0.0829 0.6976
vn 0.8009 0.0647 0.5952
vn 0.5616 -0.2587 0.7859
vn 0.3458 -0.4184 0.8399
vn 0.3804 -0.4158 0.8261
vn 0.1843 -0.5323 0.8263
vn 0.3766 -0.4022 0.8345
vn 0.5502 -0.2549 0.7951
vn 0.1942 -0.0990 -0.9760
vn 0.1635 -0.0548 -0.9850
vn 0.4063 0.1003 -0.9082
vn 0.4403 0.0688 -0.8952
vn -0.0983 -0.2147 -0.9717
vn -0.1549 -0.1419 -0.9777
vn 0.1048 0.0161 -0.9944
vn 0.3496 0.1588 -0.9233
vn 0.5453 0.2619 -0.7962
vn 0.5926 0.2196 -0.7749
vn 0.5066 0.2793 -0.8157
vn 0.3090 0.1851 -0.9329
vn 0.0654 0.0507 -0.9966
vn -0.1920 -0.1033 -0.9759
vn -0.3371 -0.3460 -0.8756
vn -0.3879 -0.2844 -0.8767
vn -0.4209 -0.2492 -0.8722
vn 0.6166 0.2010 -0.7612
vn 0.7041 0.2898 -0.6483
vn 0.7193 0.2799 -0.6358
vn 0.7557 0.3235 -0.5694
vn 0.7625 0.3180 -0.5634
vn 0.7395 0.3411 -0.5803
vn 0.6719 0.3167 -0.6695
vn -0.6260 -0.4550 -0.6333
vn -0.6592 -0.4298 -0.6171
vn -0.5582 -0.3826 -0.7362
vn -0.5107 -0.4261 -0.7468
vn -0.5840 -0.3575 -0.7288
vn -0.4281 -0.2370 -0.8721
vn -0.5898 -0.3484 -0.7285
vn -0.5775 -0.3559 -0.7347
vn -0.6770 -0.4167 -0.6067
vn -0.6652 -0.4263 -0.6130
vn -0.6754 -0.4174 -0.6080
vn -0.7182 -0.4427 -0.5369
vn -0.7160 -0.4485 -0.5350
vn -0.7375 -0.4572 -0.4971
vn -0.7378 -0.4506 -0.5026
vn -0.7119 -0.4452 -0.5432
vn -0.7363 -0.4430 -0.5115
vn -0.7103 -0.4599 -0.5329
vn -0.6631 -0.4393 -0.6061
vn -0.7102 -0.4662 -0.5274
vn -0.7369 -0.4688 -0.4870
vn -0.7407 -0.4732 -0.4768
vn -0.5771 -0.3710 -0.7276
vn -0.4223 -0.2488 -0.8716
vn -0.4221 -0.2685 -0.8659
vn -0.2023 -0.1416 -0.9690
vn -0.2009 -0.1172 -0.9726
vn 0.0473 -0.0066 -0.9989
vn 0.0508 0.0195 -0.9985
vn -0.2014 -0.0955 -0.9748
vn 0.0527 0.0503 -0.9973
vn -0.6995 -0.4454 -0.5589
vn -0.6870 -0.4352 -0.5819
vn -0.7341 -0.4151 -0.5374
vn -0.7322 -0.4274 -0.5303
vn -0.7656 -0.3901 -0.5116
vn -0.7627 -0.4070 -0.5026
vn -0.7606 -0.4342 -0.4827
vn -0.7567 -0.4534 -0.4710
vn -0.7566 -0.4593 -0.4654
vn -0.7861 -0.4657 -0.4064
vn -0.7886 -0.4527 -0.4161
vn -0.7601 -0.4653 -0.4536
vn -0.7940 -0.4636 -0.3931
vn -0.7974 -0.4195 -0.4338
vn -0.8023 -0.3851 -0.4562
vn -0.8530 -0.3974 -0.3383
vn -0.8383 -0.4427 -0.3182
vn -0.8621 -0.3680 -0.3485
vn -0.8087 -0.3743 -0.4537
vn -0.8729 -0.3727 -0.3150
vn -0.9184 -0.3956 -0.0109
vn -0.9156 -0.3690 -0.1599
vn -0.9158 -0.3843 -0.1165
vn -0.8494 -0.4894 0.1974
vn -0.7709 -0.3890 0.5044
vn -0.5874 -0.0903 0.8043
vn -0.8079 -0.2107 0.5504
vn -0.9072 -0.3226 0.2701
vn -0.7688 -0.3150 0.5566
vn -0.8721 -0.3821 0.3057
vn -0.5645 -0.2652 0.7817
vn -0.5515 -0.4239 0.7184
vn -0.7293 -0.4223 0.5383
vn -0.5225 -0.5001 0.6905
vn -0.6943 -0.4790 0.5370
vn -0.8354 -0.4460 0.3213
vn -0.8771 -0.4681 0.1072
vn -0.8952 -0.4378 0.0840
vn -0.8756 -0.4672 -0.1225
vn -0.8804 -0.4515 -0.1450
vn -0.9141 -0.4029 0.0445
vn -0.8935 -0.4147 -0.1722
vn -0.8305 -0.4682 -0.3017
vn -0.8354 -0.4686 -0.2874
vn -0.9316 -0.3633 0.0088
vn -0.8856 -0.4644 -0.0078
vn -0.8681 -0.4827 0.1154
vn -0.8136 -0.4771 0.3323
vn -0.3494 -0.6539 0.6711
vn -0.4427 -0.5288 0.7241
vn -0.3652 -0.5968 0.7145
vn -0.2024 -0.6610 0.7226
vn -0.9289 -0.2814 0.2406
vn 0.7099 0.3260 -0.6243
vn 0.7086 0.3326 -0.6223
vn 0.6186 0.2902 -0.7301
vn 0.6181 0.2749 -0.7365
vn 0.7755 0.3814 -0.5032
vn 0.7741 0.3789 -0.5072
vn 0.7709 0.3718 -0.5172
vn 0.7101 0.3439 -0.6144
vn 0.8289 0.4320 -0.3554
vn 0.8282 0.4189 -0.3723
vn 0.8290 0.4353 -0.3512
vn 0.6213 0.3170 -0.7166
vn 0.4815 0.2303 -0.8456
vn 0.4788 0.2069 -0.8532
vn 0.4852 0.2661 -0.8329
vn 0.8966 0.4130 0.1597
vn 0.8979 0.4096 0.1612
vn 0.8905 0.4549 0.0051
vn 0.8903 0.4554 0.0060
vn 0.8167 0.3986 -0.4173
vn 0.8157 0.4072 -0.4110
vn 0.7760 0.3606 -0.5175
vn 0.7831 0.3477 -0.5156
vn 0.7876 0.3450 -0.5105
vn 0.8185 0.3977 -0.4147
vn -0.9093 -0.3730 -0.1847
vn 0.8150 0.1266 0.5654
vn 0.8087 0.0507 0.5861
vn 0.6989 -0.0964 0.7087
vn 0.8347 0.2663 0.4821
vn 0.8727 0.3550 0.3352
vn 0.8928 0.4120 0.1822
vn 0.8919 0.4520 0.0161
vn 0.8646 0.4663 -0.1873
vn 0.8726 0.4575 -0.1710
vn 0.8721 0.4592 -0.1690
vn 0.8231 0.4110 -0.3919
vn 0.7719 0.3671 -0.5191
vn 0.7221 0.3488 -0.5974
vn 0.6402 0.3283 -0.6945
vn -0.7685 -0.4614 -0.4433
vn -0.8016 -0.4587 -0.3835
vn 0.2921 0.1763 -0.9400
vn 0.2892 0.1402 -0.9470
vn 0.2855 0.1136 -0.9516
vn -0.0211 -0.6230 0.7819
vn -0.8767 -0.4693 -0.1060
vn -0.8410 -0.4649 -0.2766
vn 0.8671 0.4686 -0.1691
vn 0.8150 0.1674 0.5548
vn 0.1870 0.4977 0.8470
vn 0.3556 0.5930 0.7224
vn -0.6194 -0.4535 -0.6408
vn -0.4985 -0.4450 -0.7439
vn -0.0702 -0.2590 -0.9633
vn 0.6487 0.6833 0.3352
vn 0.7427 0.6544 0.1422
vn 0.5245 0.6679 0.5280
vn -0.3120 -0.3796 -0.8710
usemtl default.008
s 1
f 1//1 2//2 3//3 4//4
f 5//5 6//6 3//3 7//7
f 8//8 9//9 10//10 6//6
f 6//6 10//10 4//4 3//3
f 11//11 4//4 10//10 9//9
f 12//12 11//11 9//9 13//13
f 14//14 1//1 4//4 11//11
f 15//15 16//16 14//14 17//17
f 18//18 1//1 14//14 16//16
f 19//19 20//20 21//21 22//22
f 23//23 15//15 17//17 24//24
f 17//17 14//14 11//11 12//12
f 24//24 17//17 12//12 25//25
f 26//26 24//24 25//25 27//27
f 28//28 26//26 27//27 29//29
f 29//29 27//27 30//30 31//31
f 27//27 25//25 32//32 30//30
f 25//25 12//12 13//13 32//32
f 32//32 13//13 33//33 34//34
f 13//13 9//9 35//35 33//33
f 36//36 35//35 9//9 8//8
f 8//8 6//6 5//5 36//36
f 36//36 5//5 37//37 38//38
f 38//38 37//37 39//39 40//40
f 40//40 39//39 41//41 42//42
f 43//43 41//41 44//44 45//45
f 41//41 39//39 46//46 44//44
f 43//43 47//47 42//42 41//41
f 42//42 48//48 49//49 40//40
f 40//40 49//49 50//50 38//38
f 39//39 37//37 51//51 46//46
f 46//46 51//51 52//52 53//53
f 51//51 7//7 54//54 52//52
f 37//37 5//5 7//7 51//51
f 35//35 36//36 38//38 50//50
f 2//2 54//54 7//7 3//3
f 54//54 2//2 55//55 56//56
f 56//56 55//55 57//57 58//58
f 55//55 21//21 20//20 57//57
f 58//58 57//57 59//59 60//60
f 60//60 59//59 61//61 62//62
f 62//62 61//61 63//63 64//64
f 63//63 65//65 66//66 67//67
f 65//65 63//63 61//61 68//68
f 69//69 70//70 67//67 66//66
f 71//71 72//72 70//70 73//73
f 74//74 67//67 70//70 72//72
f 75//75 74//74 72//72 76//76
f 71//71 77//77 76//76 72//72
f 78//78 73//73 70//70 69//69 79//79
f 80//80 71//71 73//73 81//81
f 78//78 82//82 81//81 73//73
f 67//67 74//74 64//64 63//63
f 74//74 75//75 83//83 64//64
f 75//75 84//84 85//85 83//83
f 86//86 87//87 85//85 88//88
f 88//88 85//85 84//84 89//89
f 87//87 90//90 83//83 85//85
f 90//90 62//62 64//64 83//83
f 91//91 60//60 62//62 90//90
f 59//59 92//92 68//68 61//61
f 57//57 20//20 92//92 59//59
f 58//58 93//93 94//94 56//56
f 95//95 94//94 93//93 96//96
f 56//56 94//94 52//52 54//54
f 94//94 95//95 53//53 52//52
f 97//97 95//95 96//96 98//98
f 99//99 100//100 98//98 96//96
f 101//101 98//98 100//100 102//102
f 98//98 101//101 103//103 97//97
f 90//90 87//87 99//99 91//91
f 96//96 93//93 91//91 99//99
f 100//100 99//99 87//87 86//86
f 95//95 97//97 104//104 53//53
f 45//45 44//44 104//104 105//105
f 106//106 45//45 105//105 107//107
f 107//107 105//105 103//103 108//108
f 105//105 104//104 97//97 103//103
f 44//44 46//46 53//53 104//104
f 93//93 58//58 60//60 91//91
f 21//21 55//55 2//2 1//1
f 109//109 110//110 111//111 112//112
f 113//113 114//114 115//115 110//110
f 110//110 115//115 116//116 111//111
f 111//111 116//116 117//117 118//118
f 119//119 117//117 116//116 120//120
f 120//120 116//116 115//115 121//121
f 121//121 115//115 114//114 122//122
f 123//123 124//124 114//114 113//113
f 122//122 114//114 124//124 125//125
f 126//126 118//118 127//127 128//128
f 128//128 127//127 129//129 130//130
f 131//131 129//129 127//127 132//132
f 132//132 127//127 118//118 117//117
f 133//133 134//134 135//135 136//136
f 124//124 123//123 136//136 135//135
f 125//125 124//124 135//135 137//137
f 138//138 125//125 137//137 139//139
f 140//140 139//139 141//141 142//142
f 143//143 141//141 139//139 137//137
f 141//141 143//143 144//144 145//145
f 146//146 145//145 144//144 147//147
f 148//148 149//149 147//147 144//144
f 143//143 134//134 148//148 144//144
f 137//137 135//135 134//134 143//143
f 142//142 141//141 145//145 150//150
f 151//151 142//142 150//150 152//152
f 152//152 150//150 153//153 154//154
f 155//155 140//140 142//142 151//151
f 146//146 153//153 150//150 145//145
f 156//156 138//138 139//139 140//140
f 157//157 156//156 140//140 155//155
f 158//158 159//159 156//156 157//157
f 160//160 161//161 159//159 158//158
f 138//138 156//156 159//159 162//162
f 161//161 163//163 162//162 159//159
f 164//164 148//148 134//134 133//133
f 165//165 166//166 167//167 164//164
f 166//166 168//168 169//169 167//167
f 170//170 149//149 167//167 169//169
f 149//149 148//148 164//164 167//167
f 171//171 147//147 149//149 170//170
f 172//172 146//146 147//147 171//171
f 173//173 172//172 171//171 174//174
f 175//175 153//153 146//146 172//172
f 176//176 175//175 172//172 173//173
f 174//174 171//171 170//170 177//177
f 169//169 178//178 177//177 170//170
f 177//177 179//179 180//180 174//174
f 178//178 181//181 179//179 177//177
f 168//168 182//182 178//178 169//169
f 182//182 183//183 181//181 178//178
f 184//184 28//28 29//29 185//185 186//186
f 184//184 187//187 28//28
f 183//183 186//186 185//185 181//181
f 187//187 188//188 26//26 28//28
f 188//188 23//23 24//24 26//26
f 33//33 35//35 50//50 189//189
f 189//189 190//190 34//34 33//33
f 191//191 190//190 192//192 193//193
f 192//192 194//194 195//195 196//196
f 48//48 195//195 194//194 49//49
f 49//49 194//194 189//189 50//50
f 190//190 189//189 194//194 192//192
f 197//197 198//198 196//196 195//195
f 193//193 192//192 196//196 199//199
f 199//199 200//200 201//201 193//193
f 201//201 202//202 203//203 204//204
f 180//180 205//205 203//203 206//206
f 206//206 203//203 202//202 207//207
f 204//204 203//203 205//205 208//208
f 204//204 191//191 193//193 201//201
f 209//209 200//200 210//210
f 211//211 210//210 200//200 199//199
f 212//212 213//213 214//214
f 215//215 212//212 214//214 47//47
f 48//48 42//42 47//47 214//214
f 190//190 191//191 216//216 34//34
f 216//216 208//208 31//31 30//30
f 208//208 216//216 191//191 204//204
f 34//34 216//216 30//30 32//32
f 217//217 218//218 219//219 220//220
f 217//217 221//221 222//222 218//218
f 223//223 224//224 218//218 222//222
f 222//222 225//225 226//226 223//223
f 221//221 227//227 225//225 222//222
f 228//228 219//219 218//218 224//224
f 220//220 219//219 229//229 230//230
f 219//219 228//228 231//231 229//229
f 232//232 233//233 234//234 235//235
f 81//81 236//236 237//237 80//80
f 238//238 237//237 236//236 239//239
f 240//240 239//239 236//236 241//241
f 208//208 205//205 242//242 31//31
f 185//185 29//29 31//31 242//242
f 242//242 179//179 181//181 185//185
f 205//205 180//180 179//179 242//242
f 174//174 180//180 206//206 173//173
f 173//173 206//206 207//207 176//176
f 243//243 244//244 102//102
f 244//244 245//245 101//101 102//102
f 108//108 103//103 101//101 245//245
f 246//246 88//88 89//89 247//247
f 89//89 84//84 248//248 233//233
f 233//233 248//248 249//249 234//234
f 77//77 250//250 251//251 249//249
f 252//252 234//234 249//249 251//251
f 225//225 252//252 251//251 226//226
f 250//250 253//253 226//226 251//251
f 223//223 226//226 253//253 254//254
f 238//238 131//131 255//255 254//254
f 224//224 223//223 254//254 255//255
f 256//256 228//228 224//224 255//255
f 228//228 256//256 119//119 231//231
f 117//117 119//119 256//256 132//132
f 255//255 131//131 132//132 256//256
f 237//237 238//238 254//254 253//253
f 253//253 250//250 80//80 237//237
f 250//250 77//77 71//71 80//80
f 248//248 76//76 77//77 249//249
f 84//84 75//75 76//76 248//248
f 125//125 138//138 162//162 122//122
f 163//163 121//121 122//122 162//162
f 154//154 153//153 175//175 257//257
f 257//257 175//175 176//176 258//258
f 121//121 163//163 259//259 120//120
f 229//229 231//231 259//259 260//260
f 230//230 229//229 260//260 261//261
f 261//261 260//260 161//161 160//160
f 260//260 259//259 163//163 161//161
f 231//231 119//119 120//120 259//259
f 238//238 239//239 129//129 131//131
f 195//195 48//48 214//214 213//213 197//197
f 233//233 232//232 247//247 89//89
f 47//47 43//43 262//262 215//215
f 45//45 106//106 262//262 43//43
f 200//200 209//209 263//263 202//202 201//201
f 207//207 202//202 263//263 264//264
f 176//176 207//207 264//264 258//258
f 234//234 252//252 265//265 235//235
f 102//102 100//100 86//86 266//266 243//243
f 88//88 246//246 266//266 86//86
f 199//199 196//196 198//198 211//211
f 252//252 225//225 227//227 265//265
f 92//92 267//267 268//268 68//68
f 133//133 269//269 165//165 164//164
f 136//136 270//270 269//269 133//133
f 239//239 240//240 130//130 129//129
f 20//20 19//19 267//267 92//92
f 118//118 126//126 112//112 111//111
f 110//110 109//109 271//271 113//113
f 21//21 1//1 18//18 22//22
f 66//66 272//272 273//273 69//69
f 69//69 273//273 79//79
f 65//65 274//274 272//272 66//66
f 68//68 268//268 274//274 65//65
f 113//113 271//271 275//275 123//123
f 123//123 275//275 270//270 136//136
f 81//81 82//82 241//241 236//236
